<?xml version="1.0" encoding="UTF-8" standalone="no"?>
<svg
   xmlns:dc="http://purl.org/dc/elements/1.1/"
   xmlns:cc="http://creativecommons.org/ns#"
   xmlns:rdf="http://www.w3.org/1999/02/22-rdf-syntax-ns#"
   xmlns:svg="http://www.w3.org/2000/svg"
   xmlns="http://www.w3.org/2000/svg"
   xmlns:sodipodi="http://sodipodi.sourceforge.net/DTD/sodipodi-0.dtd"
   xmlns:inkscape="http://www.inkscape.org/namespaces/inkscape"
   version="1.1"
   id="Layer_1"
   x="0px"
   y="0px"
   viewBox="0 0 512 512"
   style="enable-background:new 0 0 512 512;"
   xml:space="preserve"
   sodipodi:docname="music-player-note-playlist.svg"
   inkscape:version="1.0.1 (3bc2e81, 2020-09-07)"><metadata
   id="metadata61"><rdf:RDF><cc:Work
       rdf:about=""><dc:format>image/svg+xml</dc:format><dc:type
         rdf:resource="http://purl.org/dc/dcmitype/StillImage" /><dc:title /></cc:Work></rdf:RDF></metadata><defs
   id="defs59">
	

		
		
		
		
	</defs><sodipodi:namedview
   pagecolor="#ffffff"
   bordercolor="#666666"
   borderopacity="1"
   objecttolerance="10"
   gridtolerance="10"
   guidetolerance="10"
   inkscape:pageopacity="0"
   inkscape:pageshadow="2"
   inkscape:window-width="1600"
   inkscape:window-height="838"
   id="namedview57"
   showgrid="false"
   inkscape:zoom="0.45920508"
   inkscape:cx="243.8814"
   inkscape:cy="316.72065"
   inkscape:window-x="0"
   inkscape:window-y="0"
   inkscape:window-maximized="1"
   inkscape:current-layer="Layer_1"
   inkscape:document-rotation="0"
   inkscape:lockguides="false" />




<g
   id="g26">
</g>
<g
   id="g28">
</g>
<g
   id="g30">
</g>
<g
   id="g32">
</g>
<g
   id="g34">
</g>
<g
   id="g36">
</g>
<g
   id="g38">
</g>
<g
   id="g40">
</g>
<g
   id="g42">
</g>
<g
   id="g44">
</g>
<g
   id="g46">
</g>
<g
   id="g48">
</g>
<g
   id="g50">
</g>
<g
   id="g52">
</g>
<g
   id="g54">
</g>
<g
   id="g566"
   transform="matrix(12.786604,0,0,9.2167292,-227.06914,-366.4399)">
</g><g
   id="g568"
   transform="matrix(12.786604,0,0,9.2167292,-227.06914,-366.4399)">
</g><g
   id="g570"
   transform="matrix(12.786604,0,0,9.2167292,-227.06914,-366.4399)">
</g><g
   id="g572"
   transform="matrix(12.786604,0,0,9.2167292,-227.06914,-366.4399)">
</g><g
   id="g574"
   transform="matrix(12.786604,0,0,9.2167292,-227.06914,-366.4399)">
</g><g
   id="g576"
   transform="matrix(12.786604,0,0,9.2167292,-227.06914,-366.4399)">
</g><g
   id="g578"
   transform="matrix(12.786604,0,0,9.2167292,-227.06914,-366.4399)">
</g><g
   id="g580"
   transform="matrix(12.786604,0,0,9.2167292,-227.06914,-366.4399)">
</g><g
   id="g582"
   transform="matrix(12.786604,0,0,9.2167292,-227.06914,-366.4399)">
</g><g
   id="g584"
   transform="matrix(12.786604,0,0,9.2167292,-227.06914,-366.4399)">
</g><g
   id="g586"
   transform="matrix(12.786604,0,0,9.2167292,-227.06914,-366.4399)">
</g><g
   id="g588"
   transform="matrix(12.786604,0,0,9.2167292,-227.06914,-366.4399)">
</g><g
   id="g590"
   transform="matrix(12.786604,0,0,9.2167292,-227.06914,-366.4399)">
</g><g
   id="g592"
   transform="matrix(12.786604,0,0,9.2167292,-227.06914,-366.4399)">
</g><g
   id="g594"
   transform="matrix(12.786604,0,0,9.2167292,-227.06914,-366.4399)">
</g><g
   id="g640"
   transform="matrix(5.625591,0,0,5.2703042,19.448701,8.6469979)"><path
     d="M 77.241,54.553 C 66.724,50.026 51.97,54.231 44.017,61.229 c -4.722,4.155 -9.511,10.255 -8.513,16.942 0.843,5.665 5.441,9.344 10.609,11.025 10.571,3.44 24.73,0.11 32.01,-8.457 6.487,-7.637 5.208,-18.461 5.481,-27.819 0.479,-16.226 0.883,-32.458 1.019,-48.688 0.04,-4.634 -7.233,-4.643 -7.202,0 0.081,12.004 -0.141,45.542 -0.18,50.321 z M 58.535,84.207 C 49.869,85.47 35.872,81.354 43.66,70.26 c 3.505,-4.995 8.846,-8.749 14.63,-10.568 5.481,-1.722 12.891,-2.765 18.895,-1.184 -0.064,3.258 -0.18,6.512 -0.401,9.749 -0.649,9.463 -9.669,14.695 -18.249,15.95 z"
     id="path630"
     style="fill:#000080" /><path
     d="m 8.87,65.291 c 6.454,1.211 13.679,1.824 20.216,1.055 3.72,-0.436 3.741,-6.339 0,-5.872 -6.65,0.825 -13.225,1.886 -19.911,2.549 -1.187,0.119 -1.689,2.007 -0.305,2.268 z"
     id="path632"
     style="fill:#800000" /><path
     d="m 6.62,47.216 c 5.954,1.943 13.235,1.406 19.455,1.584 6.479,0.187 13.478,1.054 19.877,0.025 3.469,-0.561 3.54,-6.591 0,-7.081 -6.443,-0.891 -33.313,-0.333 -39.332,1.426 -2.037,0.597 -1.947,3.41 0,4.046 z"
     id="path634"
     style="fill:#00ffff" /><path
     d="m 64.361,22.106 c -4.553,-0.464 -46.839,1.401 -56.188,1.878 -3.44,0.178 -3.3,4.866 0,5.245 9.528,1.094 19.258,1.163 28.842,1.167 4.685,0.002 9.367,-0.05 14.049,-0.157 4.682,-0.111 9.699,0.182 14.28,-0.855 4.36,-0.986 2.915,-6.883 -0.983,-7.278 z"
     id="path636"
     style="fill:#ff2a2a" /><path
     d="M 67.626,4.381 C 57.852,1.758 26.604,4.466 21.328,4.877 16.344,5.261 10.686,5.04 5.905,6.537 c -0.985,0.31 -1.077,1.826 0,2.091 4.636,1.144 50.842,0.261 60.932,1.594 3.371,0.443 3.944,-4.993 0.789,-5.841 z"
     id="path638"
     style="fill:#0000ff" /></g></svg>
