<?xml version="1.0" encoding="UTF-8" standalone="no"?>
<svg
   xmlns:dc="http://purl.org/dc/elements/1.1/"
   xmlns:cc="http://creativecommons.org/ns#"
   xmlns:rdf="http://www.w3.org/1999/02/22-rdf-syntax-ns#"
   xmlns:svg="http://www.w3.org/2000/svg"
   xmlns="http://www.w3.org/2000/svg"
   xmlns:sodipodi="http://sodipodi.sourceforge.net/DTD/sodipodi-0.dtd"
   xmlns:inkscape="http://www.inkscape.org/namespaces/inkscape"
   version="1.1"
   id="Layer_1"
   x="0px"
   y="0px"
   viewBox="0 0 512 512"
   style="enable-background:new 0 0 512 512;"
   xml:space="preserve"
   sodipodi:docname="music-player-circle-start.svg"
   inkscape:version="1.0.1 (3bc2e81, 2020-09-07)"
   inkscape:export-filename="/home/drag/Dr-plStyList-2/public/music-player-circle-start.png"
   inkscape:export-xdpi="96"
   inkscape:export-ydpi="96"><metadata
   id="metadata61"><rdf:RDF><cc:Work
       rdf:about=""><dc:format>image/svg+xml</dc:format><dc:type
         rdf:resource="http://purl.org/dc/dcmitype/StillImage" /></cc:Work></rdf:RDF></metadata><defs
   id="defs59" /><sodipodi:namedview
   pagecolor="#ffffff"
   bordercolor="#666666"
   borderopacity="1"
   objecttolerance="10"
   gridtolerance="10"
   guidetolerance="10"
   inkscape:pageopacity="0"
   inkscape:pageshadow="2"
   inkscape:window-width="1600"
   inkscape:window-height="838"
   id="namedview57"
   showgrid="false"
   inkscape:zoom="1.2988281"
   inkscape:cx="204.8"
   inkscape:cy="256"
   inkscape:window-x="0"
   inkscape:window-y="0"
   inkscape:window-maximized="1"
   inkscape:current-layer="Layer_1"
   inkscape:document-rotation="0"
   inkscape:lockguides="false" />
<g
   id="g6"
   style="fill:#0000ff">
	<g
   id="g4"
   style="fill:#0000ff">
		<path
   d="M 256,0 C 114.842,0 0,114.842 0,256 0,397.158 114.842,512 256,512 397.158,512 512,397.158 512,256 512,114.842 397.158,0 256,0 Z m 0,482.743 C 130.974,482.743 29.257,381.026 29.257,256 29.257,130.974 130.974,29.257 256,29.257 381.026,29.257 482.743,130.974 482.743,256 482.743,381.026 381.026,482.743 256,482.743 Z"
   id="path2"
   style="fill:#0000ff" />
	</g>
</g>
<g
   id="g12">
	<g
   id="g10">
		<path
   d="m 266.243,416.5 c -8.079,0 -14.629,6.557 -14.629,14.636 0,8.079 6.549,14.629 14.629,14.629 8.08,0 14.629,-6.551 14.629,-14.629 v -0.013 c 0,-8.079 -6.55,-14.623 -14.629,-14.623 z"
   id="path8"
   style="fill:#d40000" />
	</g>
</g>
<g
   id="g18">
	<g
   id="g16">
		<path
   d="m 432.599,248.117 c -8.079,0 -14.629,6.551 -14.629,14.629 0,67.634 -43.33,126.623 -107.82,146.785 -7.711,2.411 -12.007,10.617 -9.598,18.328 1.956,6.257 7.73,10.268 13.959,10.268 1.445,0 2.917,-0.217 4.37,-0.672 36.421,-11.385 69.114,-34.578 92.058,-65.302 23.741,-31.791 36.289,-69.625 36.289,-109.407 0,-8.079 -6.55,-14.629 -14.629,-14.629 z"
   id="path14"
   style="fill:#00ffff" />
	</g>
</g>
<g
   id="g24"
   style="fill:#ff0000">
	<g
   id="g22"
   style="fill:#ff0000">
		<path
   d="m 366.387,229.945 v 0.001 l -168.05,-99.673 c -9.484,-5.625 -20.865,-5.723 -30.444,-0.266 -9.58,5.455 -15.299,15.296 -15.299,26.32 v 199.345 c 0,11.024 5.72,20.865 15.299,26.32 4.71,2.684 9.855,4.023 14.997,4.023 5.315,0 10.626,-1.432 15.446,-4.291 l 168.05,-99.672 c 9.292,-5.51 14.839,-15.249 14.839,-26.052 10e-4,-10.803 -5.546,-20.543 -14.838,-26.055 z m -14.922,26.943 -168.052,99.672 c -0.206,0.124 -0.518,0.307 -1.039,0.01 -0.522,-0.297 -0.522,-0.66 -0.522,-0.898 V 156.327 c 0,-0.238 0,-0.601 0.522,-0.898 0.208,-0.119 0.382,-0.159 0.53,-0.159 0.222,0 0.385,0.095 0.509,0.168 l 168.052,99.673 v 0.001 c 0.189,0.111 0.506,0.3 0.506,0.888 -0.002,0.587 -0.318,0.775 -0.506,0.888 z"
   id="path20"
   style="fill:#ff0000" />
	</g>
</g>
<g
   id="g26">
</g>
<g
   id="g28">
</g>
<g
   id="g30">
</g>
<g
   id="g32">
</g>
<g
   id="g34">
</g>
<g
   id="g36">
</g>
<g
   id="g38">
</g>
<g
   id="g40">
</g>
<g
   id="g42">
</g>
<g
   id="g44">
</g>
<g
   id="g46">
</g>
<g
   id="g48">
</g>
<g
   id="g50">
</g>
<g
   id="g52">
</g>
<g
   id="g54">
</g>
<g
   inkscape:groupmode="layer"
   id="layer1"
   inkscape:label="Layer 13" /></svg>
